:SAMPLES-PER-SECOND 24
:FULLY-SPECIFIED
:DEGREES
204
root  0.828933 41.2631 25.3665 7.20255 -67.3484 2.40509
RightUpLeg  -7.42058 4.09866 -7.95534
RightLeg  18.5874 -4.80126 -2.03368
RightFoot  -4.58406 -0.31737 4.8433
RightToes  -2.08645e-008 3.77894e-005 6.81332e-007
Spine  -8.70686 2.07696 1.55994
Spine1  9.96971 2.63997 -2.42376
HEad  -31.0463 43.744 -17.2551
LeftShoulder1  7.14206 -12.8278 -37.6404
LeftArm  -9.79675 35.0789 -37.509
LeftForeArm  159.486 -71.1081 -150.296
LeftHand  -0.171715 -2.68983 2.6849
RightShoulder  4.34596 7.0162 35.4042
RightArm  9.86168 -39.655 27.9965
RightForeArm  144.052 76.6207 134.477
RightHand  -0.341918 7.95844 -3.34013
LeftUpLeg  -13.7389 2.37295 12.1566
LeftLeg  10.8902 -1.28355 1.28625
LeftFoot  13.8173 3.18331 -14.5838
LeftToes  1.24767e-006 1.47042e-008 1.32732e-009
205
root  0.983657 40.9241 25.1628 6.31096 -68.1416 2.72989
RightUpLeg  -7.87564 7.66637 -7.99071
RightLeg  20.2904 -8.02913 -3.47689
RightFoot  -6.25775 -0.192847 3.49445
RightToes  -2.08645e-008 3.77894e-005 6.81332e-007
Spine  -7.16986 2.14943 2.7568
Spine1  9.6908 3.03083 -3.78057
HEad  -33.6799 43.2124 -19.167
LeftShoulder1  6.73474 -12.4589 -36.1467
LeftArm  -8.90469 35.7431 -35.7152
LeftForeArm  161.358 -69.4845 -152.959
LeftHand  -0.188894 -2.44389 3.00824
RightShoulder  4.12858 6.86111 33.9441
RightArm  11.8017 -38.8246 27.3165
RightForeArm  148.267 75.3874 139.268
RightHand  -0.375597 7.45028 -3.75027
LeftUpLeg  -13.7332 0.978015 12.0279
LeftLeg  15.5274 2.30898 1.29764
LeftFoot  9.41825 3.0232 -16.7579
LeftToes  1.24767e-006 1.47042e-008 1.32732e-009
206
root  1.18359 40.0215 24.9519 4.85748 -68.4319 2.96834
RightUpLeg  -7.15882 7.2758 -8.20612
RightLeg  21.7907 -6.84627 -3.21261
RightFoot  -11.3541 -0.061671 6.05958
RightToes  -2.08645e-008 3.77894e-005 6.81332e-007
Spine  -4.04131 1.79215 3.53093
Spine1  8.25039 2.80853 -4.53869
HEad  -35.5103 43.0566 -20.7231
LeftShoulder1  6.61997 -12.3716 -35.6685
LeftArm  -6.91318 34.3191 -31.8642
LeftForeArm  159.175 -69.0989 -153.218
LeftHand  -0.252138 -2.19491 4.05917
RightShoulder  4.00487 6.78704 33.0314
RightArm  14.4656 -35.5243 24.8382
RightForeArm  148.509 74.8131 141.025
RightHand  -0.403876 7.37263 -4.02758
LeftUpLeg  -13.1017 -0.262201 11.609
LeftLeg  19.4508 5.38736 2.41341
LeftFoot  1.67695 2.10828 -18.4207
LeftToes  1.24767e-006 1.47042e-008 1.32732e-009
207
root  1.32773 38.9118 24.6937 5.12788 -69.5437 2.06555
RightUpLeg  -7.70498 6.81923 -7.88853
RightLeg  24.3996 -5.36303 -2.8646
RightFoot  -18.769 0.263532 6.09906
RightToes  -2.08645e-008 3.77894e-005 6.81332e-007
Spine  -3.35203 2.10481 4.21656
Spine1  9.17279 3.1253 -4.74698
HEad  -37.6755 43.0125 -22.3519
LeftShoulder1  6.98677 -12.7292 -36.9717
LeftArm  -5.03963 29.0361 -26.5768
LeftForeArm  155.413 -71.5863 -148.912
LeftHand  -0.385932 -2.34803 5.98752
RightShoulder  3.94176 6.72042 32.6677
RightArm  14.3059 -29.4548 23.7341
RightForeArm  137.342 77.7369 128.573
RightHand  -0.531172 7.69632 -5.06649
LeftUpLeg  -12.9878 -0.693272 12.0165
LeftLeg  22.0688 7.80344 3.79975
LeftFoot  -6.56758 0.773549 -17.3241
LeftToes  1.24767e-006 1.47042e-008 1.32732e-009
208
root  1.42856 38.2028 24.3631 4.63347 -70.5251 1.87833
RightUpLeg  -8.85909 8.01819 -7.16277
RightLeg  27.9963 -6.47183 -3.94524
RightFoot  -23.5429 0.286683 4.17464
RightToes  -2.08645e-008 3.77894e-005 6.81332e-007
Spine  -3.30874 2.49002 4.57554
Spine1  11.2315 3.63433 -4.98415
HEad  -39.7286 43.0262 -22.9153
LeftShoulder1  7.42535 -13.1234 -38.5298
LeftArm  -4.43532 21.6844 -22.5553
LeftForeArm  150.27 -75.4674 -139.457
LeftHand  -0.520837 -2.2234 8.14474
RightShoulder  3.9506 6.68945 32.8721
RightArm  10.7177 -24.1111 26.2683
RightForeArm  95.7552 80.4135 83.296
RightHand  -0.56525 8.14234 -5.21132
LeftUpLeg  -12.8784 -1.37772 12.3852
LeftLeg  23.9387 9.52364 4.93075
LeftFoot  -10.9525 0.120468 -16.1853
LeftToes  1.24767e-006 1.47042e-008 1.32732e-009
209
root  1.43365 38.2322 24.0519 2.7793 -68.9218 3.01953
RightUpLeg  -8.22665 7.90186 -6.61188
RightLeg  28.9206 -8.04111 -5.00511
RightFoot  -23.3414 0.285337 4.23371
RightToes  -2.08645e-008 3.77894e-005 6.81332e-007
Spine  -2.89481 1.90723 3.2828
Spine1  12.0495 2.80196 -3.69451
HEad  -40.1601 43.2049 -22.1728
LeftShoulder1  7.681 -13.3715 -39.3498
LeftArm  -5.52209 17.2524 -22.3077
LeftForeArm  146.832 -77.2443 -132.898
LeftHand  -0.510624 -2.05514 8.15615
RightShoulder  4.12723 6.83983 34.0128
RightArm  6.62873 -24.1997 28.8253
RightForeArm  72.2176 79.0531 59.9876
RightHand  -0.775702 7.34632 -7.41575
LeftUpLeg  -12.747 -4.00746 12.1247
LeftLeg  23.984 11.328 5.78775
LeftFoot  -9.69839 0.296694 -16.4558
LeftToes  1.24767e-006 1.47042e-008 1.32732e-009
210
root  1.28424 38.8774 23.8185 2.62024 -65.9017 3.32257
RightUpLeg  -6.31148 5.6386 -6.23488
RightLeg  25.681 -8.22527 -4.51004
RightFoot  -19.7851 0.233314 4.96401
RightToes  -2.08645e-008 3.77894e-005 6.81332e-007
Spine  -3.41783 0.884028 1.26246
Spine1  11.6737 1.06489 -0.891987
HEad  -38.4071 43.953 -21.2448
LeftShoulder1  7.38387 -13.0877 -38.3794
LeftArm  -6.8174 17.3868 -26.8801
LeftForeArm  150.899 -76.0791 -137.731
LeftHand  -0.445368 -2.05264 7.14088
RightShoulder  4.1622 6.84657 34.3212
RightArm  5.30362 -29.2076 30.4474
RightForeArm  88.2962 80.1047 79.1018
RightHand  -0.786428 6.41051 -8.03611
LeftUpLeg  -12.9299 -4.62502 12.2962
LeftLeg  21.1651 10.4749 4.78034
LeftFoot  -4.03715 1.06778 -16.2646
LeftToes  1.24767e-006 1.47042e-008 1.32732e-009
211
root  1.08251 39.6987 23.7055 3.93953 -64.4298 3.05147
RightUpLeg  -5.16362 2.93894 -6.31119
RightLeg  21.0541 -6.25191 -2.87381
RightFoot  -14.9947 0.0688406 5.32359
RightToes  -2.08645e-008 3.77894e-005 6.81332e-007
Spine  -4.89262 0.418382 0.634109
Spine1  10.5949 0.213805 0.532347
HEad  -34.8483 45.2458 -20.0494
LeftShoulder1  7.11015 -12.7823 -37.5696
LeftArm  -6.37231 19.3289 -30.9278
LeftForeArm  156.342 -73.5302 -145.315
LeftHand  -0.415541 -1.8396 6.85786
RightShoulder  4.13712 6.8134 34.2085
RightArm  7.2248 -34.1765 30.1486
RightForeArm  117.288 79.8495 107.911
RightHand  -0.590972 7.36643 -5.74239
LeftUpLeg  -13.4111 0.474091 12.3687
LeftLeg  17.5387 6.21464 2.6104
LeftFoot  2.8557 1.82226 -14.7192
LeftToes  1.24767e-006 1.47042e-008 1.32732e-009
212
root  0.985989 40.2629 23.6296 4.83575 -64.4843 3.25531
RightUpLeg  -5.38179 1.78906 -6.7337
RightLeg  18.4888 -4.13738 -1.76574
RightFoot  -11.2551 -0.0811797 6.25038
RightToes  -2.08645e-008 3.77894e-005 6.81332e-007
Spine  -5.75571 0.541017 1.00025
Spine1  9.32218 0.388457 0.138643
HEad  -32.4217 45.8282 -19.172
LeftShoulder1  6.97204 -12.6184 -37.1711
LeftArm  -4.96525 20.3634 -32.5106
LeftForeArm  162.128 -71.0503 -150.767
LeftHand  -0.357827 -1.8935 5.88864
RightShoulder  4.14037 6.85557 34.0773
RightArm  10.1958 -36.3293 28.4365
RightForeArm  132.283 78.8636 121.11
RightHand  -0.388454 8.22981 -3.68095
LeftUpLeg  -14.4328 7.29394 11.4529
LeftLeg  16.3319 5.45335 2.12713
LeftFoot  7.68908 1.99325 -12.137
LeftToes  1.24767e-006 1.47042e-008 1.32732e-009
213
root  1.04739 40.3428 23.4905 3.12268 -64.6042 4.83577
RightUpLeg  -5.57148 2.84081 -7.33618
RightLeg  19.0715 -4.50472 -1.94473
RightFoot  -11.0291 -0.0930295 6.63645
RightToes  -2.08645e-008 3.77894e-005 6.81332e-007
Spine  -4.34795 0.686891 0.37017
Spine1  8.23517 0.610004 -0.0102727
HEad  -33.0503 45.2302 -19.8583
LeftShoulder1  6.77623 -12.4654 -36.3833
LeftArm  -4.09148 19.4757 -32.7159
LeftForeArm  167.083 -69.1062 -154.203
LeftHand  -0.266 -2.0944 4.31874
RightShoulder  4.08171 6.87989 33.421
RightArm  13.2031 -35.3739 26.8012
RightForeArm  137.054 78.2307 126.002
RightHand  -0.254017 8.34753 -2.52412
LeftUpLeg  -15.2131 12.2732 9.86517
LeftLeg  18.1574 9.19051 3.64087
LeftFoot  9.45024 1.87978 -10.5251
LeftToes  1.24767e-006 1.47042e-008 1.32732e-009
